<?xml version="1.0" encoding="utf-8"?>
<!-- Generator: Adobe Illustrator 21.0.0, SVG Export Plug-In . SVG Version: 6.00 Build 0)  -->
<svg version="1.1" id="Layer_1" xmlns="http://www.w3.org/2000/svg" xmlns:xlink="http://www.w3.org/1999/xlink" x="0px" y="0px"
	 viewBox="0 0 64 64" style="enable-background:new 0 0 64 64;" xml:space="preserve">
<g>
	<path d="M46,15.8H16c-1.7,0-3,1.3-3,3v33h36v-33C49,17.1,47.7,15.8,46,15.8z M47,49.8H15v-31c0-0.6,0.4-1,1-1h30c0.6,0,1,0.4,1,1
		V49.8z"/>
	<path d="M39,27.8h2c1.1,0,2-0.9,2-2v-2c0-1.1-0.9-2-2-2h-2c-1.1,0-2,0.9-2,2v2C37,26.9,37.9,27.8,39,27.8z"/>
	<polygon points="28.3,39.8 21,33.4 16.3,38.1 17.7,39.5 21.1,36.2 26.9,41.3 25.3,43.1 26.8,44.5 35,35.3 44.3,46.4 45.8,45.2 
		35.1,32.3 	"/>
</g>
</svg>
