<svg id="图层_1" data-name="图层 1" xmlns="http://www.w3.org/2000/svg" viewBox="0 0 265.98 80.98"><defs><style>.cls-1{fill:#e60012;}</style></defs><title>用友云 iuap_logo_OK</title><path class="cls-1" d="M77.69,5H9.58c-2,.08-4.08,1.14-4.08,3.86v33C5.5,60.23,2.32,71.94,1,76.1l0,.08A2.17,2.17,0,0,0,1.26,78a1.71,1.71,0,0,0,1.46.63h8.66a3.4,3.4,0,0,0,2.94-1.7l0-.1c2-4.22,3-12.36,3.82-20H37.05V72.38a2,2,0,0,0,2.1,2.05h9.79l.23,0a1.8,1.8,0,0,0,1.65-2V56.93H69.45V67.88c0,.17,0,.51-.53.51H63.06c-1.89,0-2.28,1.17-2.28,2.13v5.9a2.21,2.21,0,0,0,2.32,2.22l.23,0h16a4.31,4.31,0,0,0,2-.55,4,4,0,0,0,2-3.8V10.52C83.33,5.4,80.68,5,77.69,5M20.39,15.55H37.05s0,10.17,0,10.18H18.55V17.8s-.2-2.25,1.84-2.25M37.05,46.94c0,.14,0-.5,0-.49H18.56V36.17H37.05ZM50.82,15.55H67.31c1.33,0,2.14.54,2.14,2.11v8.06H50.82Zm18.95,30.9H50.82V36.17H69.77Z"/><path class="cls-1" d="M172.39,9.24H120.45c.32-3.54.44-5.67.44-5.67a2.2,2.2,0,0,0-.44-1.93A2.35,2.35,0,0,0,118.7.86h-8.83a2.44,2.44,0,0,0-2.49,1.94s-.13,2.43-.47,6.44H93.39a2.19,2.19,0,0,0-2.18,2.18v6.07a2.18,2.18,0,0,0,2.18,2.17h12.48c-2,16.62-6.24,41.52-15,55.58a2.79,2.79,0,0,0-.15,2.57,1.89,1.89,0,0,0,1.71.82h8.65a4.38,4.38,0,0,0,3.49-2l.17-.26,0-.1c5.63-9.93,9.42-25,11.88-38.82h34.43c.47,0,1.25,0,1.25,1.25,0,2.21-4.07,8-9.44,13.94a75.8,75.8,0,0,1-7.55-9.13,2.13,2.13,0,0,0-1.63-.87h-12c-1.1,0-1.2.74-1,1.26A79.65,79.65,0,0,0,134,61.38a38.55,38.55,0,0,1-9.3,6.14,13.39,13.39,0,0,1-4.38.88H117.7c-1.69,0-2,1-2,2.27v6.07c0,1.5.74,1.88,1.93,1.88h6a17.18,17.18,0,0,0,6.85-1.54,66.49,66.49,0,0,0,12.25-8c7.34,5.72,12.75,8.07,11.37,7.15a27.35,27.35,0,0,0,11.47,2.68h5.57a2,2,0,0,0,2.16-1.9V70.18a1.49,1.49,0,0,0-1.71-1.62h-.94c-5.66,0-7.28-1-9.45-1.85a72.55,72.55,0,0,1-9.16-6c8.81-8.92,16.19-19.62,16.19-28.26,0-4-3.26-5.43-6.41-5.43H118.38c.37-2.6.68-5.08,1-7.38h53a2.16,2.16,0,0,0,2.14-2.17V11.42a2.17,2.17,0,0,0-2.14-2.18"/><path class="cls-1" d="M185.87,19.85H259a2.33,2.33,0,0,0,2.32-2.33V11.36A2.32,2.32,0,0,0,259,9H185.87a2.35,2.35,0,0,0-2.35,2.33v6.16A2.36,2.36,0,0,0,185.87,19.85Z"/><path class="cls-1" d="M261.23,30.83H183.55a2.35,2.35,0,0,0-2.33,2.34v6.16a2.33,2.33,0,0,0,2.33,2.33h10.59l-9.33,27.09c-.18.4-1.73,4,0,6.77,1.21,1.92,3.65,2.89,7.21,2.89h58.11c3.94,0,6.88-1.09,8.56-3.14,1.47-1.78,1.91-4.15,1.33-7.07L255,50.71a2.81,2.81,0,0,0-1.89-2.11l-.13,0H239.52c-1.94,0-2.34,1.18-2.34,2.16v4.8a2.26,2.26,0,0,0,2.38,2.26h3.16s2.59,9.16,2.59,9.19H202c-.85,0-.88-.56-.77-.9L209,41.66h52.27a2.33,2.33,0,0,0,2.33-2.33V33.18A2.36,2.36,0,0,0,261.23,30.83Z"/></svg>