<?xml version="1.0" encoding="UTF-8"?>
<svg width="40px" height="40px" viewBox="0 0 92 92" version="1.1" xmlns="http://www.w3.org/2000/svg" xmlns:xlink="http://www.w3.org/1999/xlink">
    <!-- Generator: Sketch 47.1 (45422) - http://www.bohemiancoding.com/sketch -->
    <title>Artboard 2</title>
    <desc>Created with Sketch.</desc>
    <defs>
        <rect id="path-1" x="1" y="1" width="90" height="90" rx="3"></rect>
    </defs>
    <g id="01$i18n{uploadImg_bak.svg0}$i18n-end" stroke="none" stroke-width="1" fill="none" fill-rule="evenodd">
        <g id="Artboard-2">
            <g id="Rectangle-5">
                <use fill-opacity="0.180763134" fill="#BABFC5" fill-rule="evenodd" xlink:href="#path-1"></use>
                <rect stroke-opacity="0.2" stroke="#4E5968" stroke-width="1" x="1.5" y="1.5" width="89" height="89" rx="3"></rect>
            </g>
            <g id="Page-1" opacity="0.3" transform="translate(24.000000, 25.000000)" fill="#757F8C">
                <g>
                    <path d="M40,40 L8,40 L8,9 C8,8.448 8.449,8 9,8 L39,8 C39.551,8 40,8.448 40,9 L40,40 Z M39,6 L9,6 C7.346,6 6,7.346 6,9 L6,42 L42,42 L42,9 C42,7.346 40.654,6 39,6 L39,6 Z" id="Fill-1"></path>
                    <path d="M32,18 L34,18 C35.104,18 36,17.104 36,16 L36,14 C36,12.896 35.104,12 34,12 L32,12 C30.896,12 30,12.896 30,14 L30,16 C30,17.104 30.896,18 32,18" id="Fill-3"></path>
                    <polygon id="Fill-5" points="21.2451 30.0107 13.9541 23.6317 9.2931 28.2927 10.7071 29.7067 14.0451 26.3677 19.9071 31.4977 18.2571 33.3307 19.7431 34.6687 27.9711 25.5277 37.2321 36.6407 38.7681 35.3597 28.0291 22.4727"></polygon>
                    <path d="M33,0 L3,0 C1.346,0 0,1.346 0,3 L0,35 L2,35 L2,3 C2,2.448 2.449,2 3,2 L33,2 L33,0 Z" id="Fill-7"></path>
                </g>
            </g>
        </g>
    </g>
</svg>
