<?xml version="1.0" encoding="utf-8"?>
<!-- Generator: Adobe Illustrator 19.2.1, SVG Export Plug-In . SVG Version: 6.00 Build 0)  -->
<svg version="1.1" id="iCON" xmlns="http://www.w3.org/2000/svg" xmlns:xlink="http://www.w3.org/1999/xlink" x="0px" y="0px"
	 viewBox="0 0 34 34" style="enable-background:new 0 0 34 34;" xml:space="preserve">
<style type="text/css">
	.st0{fill:#FF8929;}
</style>
<title>提示_bold</title>
<g id="_编组_">
	<path class="st0" d="M17,3c7.7,0,14,6.3,14,14s-6.3,14-14,14S3,24.7,3,17l0,0C3,9.3,9.3,3,17,3 M17,0C7.6,0,0,7.6,0,17
		s7.6,17,17,17s17-7.6,17-17S26.4,0,17,0L17,0L17,0z"/>
</g>
<g id="_编组_2">
	<path class="st0" d="M17,21.5c-0.8,0-1.5-0.7-1.5-1.5V8c0-0.8,0.7-1.5,1.5-1.5s1.5,0.7,1.5,1.5v12C18.5,20.8,17.8,21.5,17,21.5z"/>
</g>
<g id="_编组_3">
	<circle class="st0" cx="17" cy="25.4" r="1.5"/>
</g>
</svg>
