<?xml version="1.0" encoding="UTF-8"?>
<svg width="89px" height="17px" viewBox="0 0 89 17" version="1.1" xmlns="http://www.w3.org/2000/svg" xmlns:xlink="http://www.w3.org/1999/xlink">
    <!-- Generator: Sketch 52.2 (67145) - http://www.bohemiancoding.com/sketch -->
    <title>分组 3</title>
    <desc>Created with Sketch.</desc>
    <defs>
        <polygon id="path-1" points="0.293574348 0.247077803 13.5281424 0.247077803 13.5281424 16.645998 0.293574348 16.645998"></polygon>
        <polygon id="path-3" points="0 0.178311213 17.0017563 0.178311213 17.0017563 16.6435538 0 16.6435538"></polygon>
        <polygon id="path-5" points="0.155093764 0.210970709 12.7110288 0.210970709 12.7110288 16.6819222 0.155093764 16.6819222"></polygon>
    </defs>
    <g id="页面-1" stroke="none" stroke-width="1" fill="none" fill-rule="evenodd">
        <g id="空白页" transform="translate(-675.000000, -11.000000)">
            <g id="顶部栏">
                <g id="分组-3" transform="translate(675.000000, 11.000000)">
                    <g id="分组">
                        <path d="M56.1200704,12.2003423 C55.117667,14.0879945 53.8237847,14.8787176 52.3330885,14.2818755 C50.8427666,13.6846627 50.6953433,12.2133172 51.8062562,10.1510609 C52.8550567,8.19927597 54.1481907,7.43932174 55.5868771,8.0661913 C57.0667223,8.69602654 57.2249966,10.129189 56.1200704,12.2003423 M59.0404729,7.25100137 C57.8139413,6.20930801 56.1200704,5.67511579 53.9629762,5.67511579 C51.8062562,5.67511579 50.2010638,6.21857574 49.002595,7.27769245 C47.854265,8.26563295 47.2267807,9.86413181 47.2267807,11.1693995 C47.2267807,12.7919945 47.9081456,14.1806719 48.9382376,15.0970654 C50.1325905,16.1546993 51.9664012,16.6766581 53.9629762,16.6766581 C56.1200704,16.6766581 57.7525773,16.1198526 58.9731222,15.0648137 C60.1031177,14.074649 60.7227444,12.4346307 60.7227444,11.1693995 C60.7227444,9.5594087 60.1566241,8.25414096 59.0404729,7.25100137" id="Fill-1" fill="#E31E25"></path>
                        <path d="M41.7090348,16.6660558 L41.7090348,16.6949712 L45.4065898,16.6949712 C45.7841281,16.6949712 46.0018954,16.4703213 46.0018954,16.1214838 L46.0018954,0.43936476 L42.301347,0.43936476 C41.9297955,0.43936476 41.7090348,0.671428833 41.7090348,1.01470572 L41.7090348,5.87025721 L41.7090348,8.1182389 L41.7090348,13.2922297 L41.7090348,16.6660558 Z" id="Fill-3" fill="#E31E25"></path>
                        <path d="M70.7580406,6.11043982 C70.3790057,6.11043982 70.1515099,6.34769382 70.1515099,6.70209199 L70.1515099,14.2022842 C67.6494303,14.8584398 66.0232843,14.1789295 66.0232843,13.1072087 L66.0232843,6.66205538 C66.0232843,6.32878764 65.8309605,6.11043982 65.4448164,6.11043982 L61.7098442,6.11043982 L61.7098442,12.9285268 C61.7098442,16.3776069 66.1591083,18.0139181 73.7693666,15.8875291 C74.1989146,15.7440645 74.4956319,15.3577854 74.4956319,14.8258174 L74.4956319,6.11043982 L74.47393,6.11043982 L70.7580406,6.11043982 Z" id="Fill-5" fill="#E31E25"></path>
                        <path d="M39.6087023,14.4836156 C39.6087023,14.171849 39.3422927,13.9275515 39.0279893,13.9494233 C38.3443794,13.9972449 37.1698575,14.0139268 36.1259212,13.7051259 C35.7637239,13.5979908 35.4340795,13.4797346 35.1556965,13.2880778 C34.8765651,13.0934554 33.9796779,12.4298856 33.9213073,11.1972769 C33.8595691,9.88718993 34.4458946,9.36930892 35.0352135,9.01083295 C35.584122,8.67645309 36.4615523,8.5226087 37.3206483,8.46403661 C37.9769437,8.41955149 38.5917062,8.47108009 39.0182609,8.52816934 C39.3318159,8.5700595 39.6087023,8.32761556 39.6087023,8.01399542 L39.6079539,5.80938673 C39.2865413,5.73376201 38.9711153,5.67704348 38.6579345,5.63478261 C38.3241742,5.59252174 37.9877947,5.56583066 37.644306,5.55285584 C37.3079265,5.5395103 36.9438584,5.53135469 36.5723069,5.53135469 C35.4598973,5.53135469 34.4634807,5.66777574 33.6081264,5.95285126 C32.7460371,6.22865904 32.0167783,6.61790389 31.4218469,7.11168879 C30.8332763,7.6062151 30.3824006,8.20083295 30.0781998,8.8981373 C29.7713798,9.59395881 29.6209632,10.3576201 29.6209632,11.1972769 C29.6209632,12.0647368 29.7713798,12.8372952 30.0781998,13.5290389 C30.3824006,14.2174462 30.837018,14.8072449 31.4413038,15.3039954 C32.0384802,15.800746 32.7886925,16.1759039 33.6590136,16.4439268 C34.5416824,16.7056476 35.5519433,16.8387323 36.7040149,16.8387323 C37.3902441,16.8387323 38.0674931,16.8079634 38.7499805,16.7341922 C39.0220026,16.7056476 39.3153524,16.6552311 39.6079539,16.5959176 L39.6087023,14.4836156 Z" id="Fill-7" fill="#E31E25"></path>
                        <g transform="translate(75.208315, 0.192546)">
                            <mask id="mask-2" fill="white">
                                <use xlink:href="#path-1"></use>
                            </mask>
                            <g id="Clip-10"></g>
                            <path d="M8.4385226,12.6469359 C7.43611924,14.5345881 6.14223689,15.3253112 4.65154073,14.7284691 C3.16121875,14.1312563 3.01379549,12.6599108 4.12470836,10.5976545 C5.17350889,8.64586957 6.46701707,7.88591533 7.90570349,8.5127849 C9.3855487,9.14262014 9.54344874,10.5757826 8.4385226,12.6469359 Z M9.76196444,0.247077803 C9.38330367,0.247077803 9.15880124,0.48321968 9.15880124,0.832798627 L9.15880124,6.93578719 C8.54254206,6.53208467 7.82787598,6.24737986 7.03014401,6.12170938 C4.89999009,5.78584668 3.26785741,6.66516934 2.06976276,7.72428604 C0.921432817,8.71222654 0.293574348,10.3107254 0.293574348,11.6159931 C0.293574348,13.2385881 0.823774259,14.4889908 2.00503123,15.5432883 C3.33333728,16.7295584 6.36150093,16.9790458 8.05013339,16.1927712 C8.48267475,15.991476 8.84524617,15.7938879 9.15880124,15.5955584 L9.15880124,16.4263181 L9.15880124,16.4556041 L12.9218362,16.4556041 C13.3064837,16.4556041 13.5283669,16.2268764 13.5283669,15.8721076 L13.5283669,0.247077803 L9.76196444,0.247077803 Z" id="Fill-9" fill="#E31E25" mask="url(#mask-2)"></path>
                        </g>
                        <g transform="translate(0.000000, 0.192546)">
                            <mask id="mask-4" fill="white">
                                <use xlink:href="#path-3"></use>
                            </mask>
                            <g id="Clip-12"></g>
                            <path d="M16.9209354,1.34067048 L17.0017563,0.178125858 L14.5760075,0.178125858 L11.7326842,0.178125858 C11.6922738,0.178125858 11.6492441,0.807961098 11.6013503,2.06689016 C11.5455989,3.36363158 11.4655263,4.79234554 11.3626294,6.35229062 C11.2428947,8.18470709 11.1467329,9.35874371 11.0752663,9.87551259 C11.0120314,10.3833844 10.9158695,10.7967254 10.7886515,11.1162769 C10.6614334,11.4547346 10.5143843,11.7364737 10.34713,11.9614943 C10.2120544,12.1494439 10.0522835,12.3144096 9.86968819,12.4552792 C9.66239761,12.6054165 9.42816674,12.7229314 9.16549889,12.8070824 C8.83099027,12.910881 8.47290889,12.9627803 8.09088058,12.9627803 C7.64486908,12.9627803 7.21719195,12.8912334 6.80710084,12.748881 C6.39775807,12.6068993 6.07746793,12.3963364 5.84623043,12.1160801 C5.61574126,11.8358238 5.45671871,11.4947712 5.36916276,11.0925515 C5.28198098,10.6899611 5.23782884,10.1883913 5.23782884,9.58895423 C5.23782884,9.27310984 5.25578903,8.70110526 5.29133525,7.87256979 C5.32688147,7.04403432 5.37963954,6.15618535 5.45035781,5.20939359 L5.80656833,0.178125858 C4.74729102,0.194066362 3.90016851,0.202221968 3.26295577,0.202221968 C2.75408359,0.202221968 1.87740159,0.194066362 0.63590314,0.178125858 L0.420006634,4.8538833 C0.371738611,5.81661556 0.327960637,6.54654233 0.28792437,7.04403432 L0.13226935,8.93761785 C0.075769571,9.65605263 0.0398491818,10.2065561 0.0237598408,10.5887574 C0.00767049978,10.9713295 -0.00018708536,11.2578879 -0.00018708536,11.4469497 C-0.00018708536,12.0074622 0.0712795223,12.5323867 0.214961079,13.0217231 C0.342553295,13.4558238 0.518039363,13.8291281 0.741045113,14.140524 C0.963676692,14.4519199 1.28247015,14.7577551 1.6970513,15.057659 C2.15092039,15.3809176 2.68523618,15.6633982 3.29812782,15.9039886 C3.91251614,16.1449497 4.60136444,16.3284508 5.36579522,16.454492 C6.19495754,16.5801625 7.05480186,16.6435538 7.94794737,16.6435538 C8.94361566,16.6435538 9.92693631,16.5608856 10.899406,16.3948078 C11.8711274,16.2294714 12.7395776,15.9473616 13.5047567,15.548849 C13.6847329,15.4550595 13.8531097,15.3579336 14.0125064,15.2589542 C13.4052273,14.7173478 13.005613,13.9692563 12.8540739,12.9757551 L12.8540739,12.2762265 C13.1496687,9.89330664 14.6261464,8.68034554 16.4595829,7.8214119 C15.4047957,7.20010297 14.4712397,6.44051945 14.6018253,4.76565446 C14.7204374,3.23833181 15.6513742,2.08394279 16.9209354,1.34067048" id="Fill-11" fill="#E31E25" mask="url(#mask-4)"></path>
                        </g>
                        <g transform="translate(13.470146, 0.192546)">
                            <mask id="mask-6" fill="white">
                                <use xlink:href="#path-5"></use>
                            </mask>
                            <g id="Clip-14"></g>
                            <path d="M7.69126625,2.26544211 C7.54421716,2.26544211 7.39305219,2.27248558 7.24263556,2.28546041 C6.02957408,2.39111259 4.7424268,3.17590435 4.62680805,4.47153364 C4.52765281,5.58254966 5.30779876,5.9714238 6.06175276,6.3469524 C6.70420389,6.6668746 7.2894069,6.94935515 7.89780849,7.14805538 C8.46879301,6.79921785 9.04501592,6.41293867 9.41319991,5.90247185 C9.77988722,5.3946 10.1458262,4.5686595 10.0773529,3.77126362 C9.95799248,2.37443066 8.22109199,2.26544211 7.69126625,2.26544211 Z M5.30181203,8.71504394 C4.94672402,8.90151076 4.64289739,9.09872815 4.39669306,9.30187689 C3.49756081,10.0447785 2.94603317,11.0597808 2.88092747,12.0866458 C2.78252057,13.6388059 3.899046,14.4339776 5.04924679,14.5333277 C5.20116011,14.5463025 5.35157674,14.5529753 5.50012251,14.5529753 C7.48397567,14.5529753 8.90507607,13.4019227 9.03678417,11.6873918 C9.10263821,10.8206732 8.81003671,10.4199364 8.34943255,10.0840737 C7.69463379,9.60697071 6.91037196,9.31670526 6.08008713,9.0101286 C5.82565104,8.91633913 5.56260902,8.81884256 5.30181203,8.71504394 Z M5.55886732,16.6819593 L4.75252941,16.6804764 C2.03754666,16.4788105 0.491847413,15.2617716 0.157338788,13.0638357 L0.155093764,13.0301011 L0.156590447,12.3027693 C0.465655462,9.8041881 2.04839761,8.5990119 3.51739186,7.85203249 C2.56325652,7.22627506 1.77899469,6.38216979 1.90209686,4.80220641 C2.12547678,1.92179451 5.01931314,0.403739588 7.61343874,0.211712128 L7.6306506,0.210970709 L8.43137594,0.211712128 C9.68671871,0.31847643 10.5458147,0.568705263 11.2167028,1.02393638 C12.3365958,1.7831492 12.8189018,2.81520412 12.6909354,4.17793181 C12.5251778,5.9399135 11.1291468,7.26816522 9.75369527,7.99994554 C10.8518863,8.63645355 11.9414715,9.45609199 11.7989124,11.4264124 C11.6930221,12.892568 10.9768594,14.1778174 9.72862583,15.1449982 C8.60835869,16.0124581 7.13113268,16.5577716 5.56822158,16.6804764 L5.55886732,16.6819593 Z" id="Fill-13" fill="#717172" mask="url(#mask-6)"></path>
                        </g>
                    </g>
                </g>
            </g>
        </g>
    </g>
</svg>