<?xml version="1.0" encoding="UTF-8"?>
<svg width="127px" height="40px" viewBox="0 0 127 40" version="1.1" xmlns="http://www.w3.org/2000/svg" xmlns:xlink="http://www.w3.org/1999/xlink">
    <!-- Generator: Sketch 49 (51002) - http://www.bohemiancoding.com/sketch -->
    <title>new logo</title>
    <desc>Created with Sketch.</desc>
    <defs>
        <polygon id="path-1" points="0.000521551724 0.00632432432 27.8745405 0.00632432432 27.8745405 28.1730203 0.000521551724 28.1730203"></polygon>
        <polygon id="path-3" points="0.000521551724 38.9938865 120.980703 38.9938865 120.980703 0.527237838 0.000521551724 0.527237838"></polygon>
    </defs>
    <g id="new-logo" stroke="none" stroke-width="1" fill="none" fill-rule="evenodd">
        <g id="Group" transform="translate(2.000000, 1.000000)">
            <g id="Page-1">
                <g id="Group-3" transform="translate(0.000000, 0.520914)">
                    <mask id="mask-2" fill="white">
                        <use xlink:href="#path-1"></use>
                    </mask>
                    <g id="Clip-2"></g>
                    <path d="M12.5028466,15.9394054 L14.1353034,17.589 C15.0375879,18.5007568 16.4994974,18.5007568 17.4017819,17.589 C18.3025017,16.6788243 18.3025017,15.1999865 17.4017819,14.2898108 C16.8609328,13.7422297 15.769325,12.6386351 15.769325,12.6386351 C13.964756,10.8167027 13.964756,7.86218919 15.7677603,6.0392027 C17.5718078,4.21727027 20.4956267,4.21727027 22.3001957,6.0392027 C22.3001957,6.0392027 23.3193078,7.07006757 23.9326526,7.69037838 C24.8349371,8.60055405 26.2968466,8.60055405 27.1986095,7.69037838 C28.0998509,6.77862162 28.0998509,5.30136486 27.1986095,4.38960811 C26.5852647,3.76982432 25.5651095,2.74001351 25.5651095,2.74001351 C21.9575362,-0.904905405 16.1104198,-0.904905405 12.5028466,2.74001351 C10.5512,4.71214865 9.65726034,7.3457027 9.81841983,9.92602703 C7.26438103,9.76475676 4.65714397,10.6686081 2.70549741,12.6386351 C-0.902075862,16.2840811 -0.902075862,22.1946892 2.70549741,25.8396081 C2.70549741,25.8396081 4.02137241,27.1692973 4.33795431,27.4892027 C5.24023879,28.4009595 6.70162672,28.4009595 7.60391121,27.4892027 C8.50619569,26.5785 8.50619569,25.1001892 7.60391121,24.1900135 C7.28785086,23.8701081 5.97197586,22.5388378 5.97197586,22.5388378 C4.1674069,20.7169054 4.1674069,17.7623919 5.97197586,15.9394054 C7.77498017,14.117473 10.6998422,14.117473 12.5028466,15.9394054" id="Fill-1" fill="#E50012" mask="url(#mask-2)"></path>
                </g>
                <path d="M35.36225,13.1604446 C31.7551983,9.51499865 25.9075603,9.51499865 22.2999871,13.1604446 C18.6929353,16.8058905 18.6929353,22.7143905 22.2999871,26.3598365 C24.1029914,28.182823 24.1029914,31.1373365 22.2999871,32.96085 C20.4959397,34.7827824 17.5721207,34.7827824 15.7691164,32.96085 C13.965069,31.1373365 13.965069,28.182823 15.7691164,26.3598365 L17.4015733,24.7102419 C18.3022931,23.7984851 18.3022931,22.3212284 17.4015733,21.4094716 C16.4992888,20.4992959 15.0373793,20.4992959 14.1350948,21.4094716 C13.6198017,21.9322824 12.5026379,23.0606473 12.5026379,23.0606473 C8.89558621,26.7055662 8.89558621,32.6145932 12.5026379,36.2600392 C16.1102112,39.9049581 21.9578491,39.9049581 25.5649009,36.2600392 C29.1724741,32.6145932 29.1735172,26.7055662 25.5649009,23.0606473 C23.7618966,21.2371338 23.7618966,18.2826203 25.5649009,16.4612149 C27.3694698,14.6377014 30.2932888,14.6377014 32.0973362,16.4612149 C33.9003405,18.2826203 33.9003405,21.2371338 32.0962931,23.0606473 C32.0962931,23.0606473 30.9040259,24.2654311 30.4638362,24.7102419 C29.5625948,25.6219986 29.5625948,27.0992554 30.4638362,28.0104851 C31.3655991,28.9211878 32.8280302,28.9211878 33.7297931,28.0104851 C34.1684181,27.5656743 35.36225,26.3598365 35.36225,26.3598365 C38.9698233,22.7143905 38.9698233,16.8058905 35.36225,13.1604446" id="Fill-4" fill="#E50012"></path>
                <path d="M67.8130418,5.52888243 L52.8074772,5.52888243 C52.8997918,4.49063919 52.936822,3.87401757 52.936822,3.87401757 C52.9889772,3.58467973 52.8982272,3.40812568 52.8074772,3.30535541 C52.6244125,3.08295 52.3359944,3.07926081 52.3041797,3.07926081 L49.7543134,3.07926081 C49.2609254,3.07926081 49.0643004,3.45134189 49.0309211,3.65003108 C49.0309211,3.65003108 48.9938909,4.35730135 48.8953177,5.52888243 L44.9862875,5.52888243 C44.6425849,5.52888243 44.3552099,5.81242297 44.3552099,6.16289595 L44.3552099,7.94003108 C44.3552099,8.28734189 44.6425849,8.57246351 44.9862875,8.57246351 L48.5896884,8.57246351 C48.0217185,13.4263824 46.7908565,20.7019905 44.2686323,24.8027878 C44.1914427,24.9329635 44.0720073,25.2860716 44.2300375,25.5532743 C44.2921022,25.6628959 44.4323996,25.7920176 44.7197746,25.7951797 L47.2159211,25.7951797 L47.2200935,25.7951797 C47.3749944,25.7893824 47.9007185,25.7240311 48.2324254,25.2196662 L48.273628,25.1458824 C48.2814513,25.1332338 48.2897961,25.1205851 48.2897961,25.1137338 C49.9206884,22.2150851 51.0143823,17.8223149 51.7278651,13.7810716 L61.6728134,13.7810716 C61.8131108,13.7810716 62.0384211,13.7657878 62.0384211,14.1452473 C62.0384211,14.7871662 60.8586711,16.4910446 59.3054901,18.2138959 C58.5231625,17.3927878 57.7914254,16.5021122 57.1316625,15.5487203 C56.9496409,15.2915311 56.6539211,15.2915311 56.6539211,15.2915311 L53.1913392,15.2915311 C52.8711065,15.2915311 52.8403349,15.5086662 52.9039642,15.6572878 C54.0148694,17.6858149 55.3740332,19.3812608 56.7159858,20.7573284 C55.7631108,21.5631527 54.8253608,22.2150851 54.025822,22.5486932 C53.6231841,22.7152338 53.0703392,22.8058824 52.7579297,22.8058824 L52.0084599,22.8058824 C51.5260246,22.8058824 51.424322,23.1015446 51.424322,23.4688824 L51.424322,25.2418014 C51.424322,25.6823959 51.6345073,25.7893824 51.9797746,25.7893824 L53.7055892,25.7893824 C54.3231065,25.7893824 55.0767487,25.6307473 55.6859211,25.3387743 C56.6925159,24.8665581 57.9416323,24.0480851 59.2272573,23.011423 C61.3504944,24.6831527 62.9156711,25.370923 62.5140763,25.1000311 C62.3158866,24.9677473 63.8127401,25.8853014 65.8285375,25.8853014 L67.4432616,25.8853014 C67.7384599,25.8853014 68.0675591,25.7129635 68.0675591,25.3308689 L68.0675591,23.3255311 C68.0675591,22.9502878 67.8255591,22.8485716 67.5741711,22.8485716 L67.3013996,22.8485716 C65.6632056,22.8485716 65.1958953,22.5650311 64.5648177,22.3120581 C63.6625332,21.8092743 62.7753737,21.2226932 61.9215935,20.5670716 C64.4667659,17.960923 66.5988694,14.8388149 66.5988694,12.3106662 C66.5988694,11.1490986 65.6595547,10.7290581 64.7504901,10.7290581 L52.2082142,10.7290581 C52.3140892,9.96908514 52.4058823,9.24758514 52.4872444,8.57246351 L67.8130418,8.57246351 C68.1598737,8.57246351 68.4373392,8.28734189 68.4373392,7.94003108 L68.4373392,6.16289595 C68.4373392,5.81242297 68.1598737,5.52888243 67.8130418,5.52888243" id="Fill-6" fill="#727171"></path>
                <path d="M93.9741806,22.815527 L85.0759866,22.815527 L85.0759866,18.4296081 L90.5016892,18.4296081 C90.8620815,18.4296081 91.1536289,18.135 91.1536289,17.7724054 L91.1536289,16.0174054 C91.1536289,15.6532297 90.8620815,15.3596757 90.5016892,15.3586216 L76.3958013,15.3596757 C78.2702582,14.3024595 79.6534134,13.4697568 81.4371203,12.2623378 C81.7578746,12.0441486 81.8251547,11.5924865 81.5774177,11.2920811 L80.2724953,9.70941892 C80.0466634,9.43536486 79.6508056,9.39794595 79.3717754,9.61508108 C77.3309435,11.2019595 75.0741892,12.4399459 72.4747754,13.5034865 C72.1738401,13.6257568 72.0043358,13.9535676 72.0830901,14.2729459 L72.727728,16.3257162 C72.8294306,16.7325811 73.2737927,16.9423378 73.6467022,16.7578784 C74.290297,16.437973 75.0298573,16.0627297 75.5279392,15.7976351 L75.5279392,17.7724054 C75.5279392,18.135 75.8194866,18.4296081 76.1783142,18.4296081 L81.6040168,18.4296081 L81.6040168,22.815527 L72.7058228,22.815527 C72.3469953,22.815527 72.0554478,23.1101351 72.0554478,23.4727297 L72.0554478,25.2282568 C72.0554478,25.5908514 72.3469953,25.8854595 72.7058228,25.8854595 L93.9741806,25.8854595 C94.3345728,25.8854595 94.6245556,25.5908514 94.6245556,25.2282568 L94.6245556,23.4727297 C94.6245556,23.1101351 94.3345728,22.815527 93.9741806,22.815527" id="Fill-8" fill="#727171"></path>
                <path d="M92.6468315,16.2495608 C92.9608056,16.4398176 93.3644866,16.33125 93.5449435,16.0087095 L94.5405858,14.2178716 C94.7179134,13.8995473 94.6078659,13.4963716 94.2918056,13.3198176 C91.8728487,11.9706284 89.7532625,10.6166959 86.884728,9.25538514 C86.5983961,9.12046622 86.2546935,9.21058784 86.0731935,9.47041216 L85.0170513,10.9782365 C84.7844392,11.3092095 84.9054392,11.7703581 85.2689608,11.9484932 C88.0290125,13.2961014 90.1381677,14.7306689 92.6468315,16.2495608" id="Fill-10" fill="#727171"></path>
                <path d="M75.5815547,10.3462257 C75.5815547,10.6919554 75.3035677,10.9728608 74.9614297,10.9728608 L72.6754685,10.9728608 C72.3333306,10.9728608 72.0553435,10.6919554 72.0553435,10.3462257 L72.0553435,6.18429324 C72.0553435,5.83803649 72.3333306,5.55713108 72.6754685,5.55713108 L74.9614297,5.55713108 C75.3035677,5.55713108 75.5815547,5.83803649 75.5815547,6.18429324 L75.5815547,10.3462257 Z" id="Fill-12" fill="#727171"></path>
                <path d="M92.9325897,5.53093784 L90.1120379,5.53093784 L90.1104733,5.53093784 L85.6287793,5.53093784 L84.8099431,3.49397838 C84.7113698,3.24364054 84.4719776,3.07815405 84.2049431,3.07815405 L81.697844,3.07815405 C81.2373138,3.07815405 80.9222966,3.54931622 81.092844,3.98147838 L81.7213138,5.53093784 L72.6765638,5.53093784 C72.3323397,5.53093784 72.0548741,5.81184324 72.0548741,6.15757297 L72.0548741,7.94893784 C72.0548741,8.29519459 72.3323397,8.57557297 72.6765638,8.57557297 L88.419081,8.57557297 L90.5339733,8.57557297 C90.8463828,8.57557297 91.0993353,8.83170811 91.0993353,9.14528919 L91.0993353,9.83358649 L91.0993353,10.3463838 C91.0993353,10.6921135 91.3773224,10.9730189 91.7194603,10.9730189 L94.0054216,10.9730189 C94.3475595,10.9730189 94.6255466,10.6921135 94.6255466,10.3463838 L94.6255466,8.12285676 L94.6255466,7.61005946 L94.6255466,7.24166757 C94.6255466,6.29670811 93.8677319,5.53093784 92.9325897,5.53093784" id="Fill-14" fill="#727171"></path>
                <path d="M104.48616,19.3038932 C104.48616,20.0306635 105.069255,20.6188257 105.78691,20.6188257 L113.598712,20.6188257 C114.316367,20.6188257 114.899462,20.0306635 114.899462,19.3038932 L114.899462,9.65824459 C114.899462,8.9309473 114.316367,8.34173108 113.598712,8.34173108 L105.78691,8.34173108 C105.069255,8.34173108 104.48616,8.9309473 104.48616,9.65824459 L104.48616,19.3038932 Z M111.862987,17.3307041 C111.862987,17.6943527 111.57144,17.9879068 111.211048,17.9879068 L108.174574,17.9879068 C107.814181,17.9879068 107.522634,17.6943527 107.522634,17.3307041 L107.522634,15.7965284 L111.862987,15.7965284 L111.862987,17.3307041 Z M111.862987,13.1656095 L107.522634,13.1656095 L107.522634,11.6314338 C107.522634,11.2672581 107.814181,10.97265 108.174574,10.97265 L111.211048,10.97265 C111.57144,10.97265 111.862987,11.2672581 111.862987,11.6314338 L111.862987,13.1656095 Z" id="Fill-16" fill="#727171"></path>
                <path d="M107.258729,6.09654324 L106.101927,3.46562432 C105.997617,3.22846216 105.763962,3.07562432 105.506837,3.07562432 L103.028423,3.07562432 C102.556419,3.07562432 102.241401,3.56575946 102.434375,4.00108378 L103.590656,6.62198919 C103.693923,6.86389459 103.929143,7.02042162 104.19044,7.02042162 L106.664681,7.02042162 C107.135121,7.02042162 107.449617,6.53186757 107.258729,6.09654324" id="Fill-18" fill="#727171"></path>
                <path d="M101.792084,25.3157959 C101.792084,25.6314851 101.539132,25.8855122 101.228287,25.8855122 L98.9699681,25.8855122 C98.6591233,25.8855122 98.4061707,25.6314851 98.4061707,25.3157959 L98.4061707,6.09353919 C98.4061707,5.77837703 98.6591233,5.52224189 98.9699681,5.52224189 L101.228287,5.52224189 C101.539132,5.52224189 101.792084,5.77837703 101.792084,6.09353919 L101.792084,25.3157959 Z" id="Fill-20" fill="#727171"></path>
                <path d="M120.96829,5.69226081 C120.849897,4.2276527 119.638333,3.07557162 118.158691,3.07557162 L109.278229,3.07557162 C108.936091,3.07557162 108.657061,3.35595 108.657061,3.70062568 L108.657061,5.48777432 C108.657061,5.83403108 108.936091,6.11440946 109.278229,6.11440946 L114.772777,6.11440946 L116.464169,6.11440946 C117.088466,6.11440946 117.593328,6.62457162 117.594893,7.25436892 L117.594893,22.2767473 C117.594893,22.5281392 117.432169,22.739477 117.208423,22.8148419 L114.772777,22.8148419 C114.460367,22.8148419 114.207415,23.07045 114.207415,23.3856122 L114.207415,25.3161122 C114.207415,25.6302203 114.460367,25.8858284 114.772777,25.8858284 L116.465734,25.8858284 L118.722488,25.8858284 L119.287328,25.8858284 C120.221428,25.8858284 120.980285,25.1200581 120.980285,24.1750986 L120.980285,6.49650405 L120.980285,5.92678784 L120.980285,5.92573378 L120.980285,5.80767973 C120.980285,5.76867973 120.976634,5.72967973 120.96829,5.69226081" id="Fill-22" fill="#727171"></path>
                <path d="M46.8430116,35.4325014 C46.5358177,35.2875689 46.2249728,35.1436905 45.9193435,35.0040284 C46.009572,34.8643662 46.1039728,34.7152176 46.1999384,34.5597446 L47.5205073,34.5597446 C47.3546539,34.8912446 47.1267358,35.1842716 46.8430116,35.4325014 Z M48.0837832,36.0143392 L48.0566625,36.0016905 C47.8031884,35.8846905 47.5710978,35.776123 47.3494384,35.6701905 C47.6769728,35.3444878 47.9262746,34.9634473 48.0900418,34.5365554 L48.0916065,34.0659203 L46.488878,34.0659203 C46.5519858,33.9578797 46.6150935,33.8482581 46.6782013,33.7370554 L46.6938478,33.7085959 L46.1655159,33.5383662 L46.1556065,33.5578662 C46.0664211,33.72915 45.9735849,33.8999068 45.8786625,34.0659203 L44.8616366,34.0659203 L44.8616366,34.5597446 L45.5954599,34.5597446 C45.4702875,34.7652851 45.3409427,34.9650284 45.2105547,35.1542311 L45.192822,35.1795284 L45.2204642,35.1927041 C45.6178866,35.3892851 46.0043565,35.5848122 46.3699642,35.7734878 C45.9360332,36.0354203 45.4019642,36.2399068 44.7823608,36.38115 L44.7505461,36.3885284 L44.764628,36.4185689 C44.8407746,36.5808932 44.9163996,36.7384743 44.9899384,36.8870959 L44.9993263,36.9065959 L45.0201884,36.9007986 C45.7722659,36.69315 46.4054297,36.4069743 46.9024685,36.04965 C47.1955806,36.2045959 47.4777401,36.3595419 47.7416453,36.5102716 L47.7630289,36.5223932 L48.0676151,36.0396365 L48.0837832,36.0143392 Z" id="Fill-24" fill="#727171"></path>
                <path d="M49.151556,32.150177 C49.1739828,32.1043257 49.1953664,32.0553122 49.2157069,32.0041905 L50.4079741,32.0041905 C50.3292198,33.0382176 50.1205991,33.8835689 49.7873276,34.5181095 C49.4431034,33.8609068 49.2292672,33.0645689 49.151556,32.150177 M50.149806,35.1010014 C50.5962543,34.3352311 50.8789353,33.2932986 50.9895043,32.0041905 L51.4088319,32.0041905 L51.4088319,31.4966635 L49.3930345,31.4966635 C49.5114267,31.1314338 49.6173017,30.7351095 49.7064871,30.317177 L49.7127457,30.2897716 L49.1296509,30.2017581 L49.126,30.2275824 C48.9554526,31.2890149 48.6112284,32.2012986 48.1037586,32.9396635 L48.0922845,32.9565284 L48.1053233,32.9718122 C48.2367543,33.1267581 48.3473233,33.2701095 48.434944,33.39765 L48.455806,33.4287446 L48.4777112,33.398177 C48.5653319,33.2748527 48.6508664,33.1409878 48.73275,32.9997446 C48.8506207,33.7792176 49.0832328,34.4785824 49.4248491,35.0804473 C49.045681,35.5916635 48.5460345,36.0554473 47.9389483,36.458623 L47.9118276,36.4765419 L47.9347759,36.4992041 C48.0875905,36.6494068 48.213806,36.790123 48.3097716,36.9181905 L48.324375,36.9376905 L48.3452371,36.9239878 C48.8954741,36.556123 49.3779095,36.1176365 49.7800259,35.620123 C50.134681,36.0955014 50.5821724,36.5118527 51.1105043,36.8575824 L51.132931,36.8718122 L51.1470129,36.84915 C51.2424569,36.6957851 51.3624138,36.518177 51.5032328,36.322123 L51.520444,36.2984068 L51.4948879,36.28365 C50.9545603,35.9779743 50.5018534,35.5800689 50.149806,35.1010014" id="Fill-26" fill="#727171"></path>
                <path d="M47.6115703,31.6429662 L47.6308677,31.6598311 L47.6480789,31.6408581 C47.8906004,31.3683851 48.1362513,31.0690338 48.3777297,30.7491284 L48.3944194,30.7269932 L47.9396263,30.4228986 L47.9250228,30.4439797 C47.7059711,30.7586149 47.4790961,31.0548041 47.251178,31.3251689 L47.2324022,31.346777 L47.255872,31.3636419 C47.3914754,31.4606149 47.5109108,31.5549527 47.6115703,31.6429662" id="Fill-28" fill="#727171"></path>
                <path d="M45.6934595,31.5909486 L45.7085845,31.6130838 L46.162856,31.2873811 L46.1461664,31.265773 C45.9344164,30.9848676 45.7268388,30.7187189 45.5302138,30.4757595 L45.5150888,30.4567865 L45.0952397,30.7471784 L45.1114078,30.7693135 C45.3033388,31.0243946 45.4989207,31.3005568 45.6934595,31.5909486" id="Fill-30" fill="#727171"></path>
                <path d="M45.0575315,33.7651986 L45.0710918,33.7862797 L45.0924754,33.7736311 C45.607247,33.4642662 46.0656909,33.1027257 46.4573763,32.6984959 L46.4573763,33.59655 L46.9992685,33.59655 L46.9992685,32.8618743 C47.3450573,33.1369824 47.6371263,33.3883743 47.8692168,33.6091986 L47.8890358,33.6281716 L48.2416047,33.2123473 L48.2212642,33.1949554 C47.9443203,32.9641176 47.5964453,32.6937527 47.1870272,32.3912392 L47.1677297,32.3770095 L46.9992685,32.5704284 L46.9992685,32.2584284 L48.2702901,32.2584284 L48.2702901,31.764077 L46.9992685,31.764077 L46.9992685,30.2652122 L46.4573763,30.2652122 L46.4573763,31.764077 L44.9344453,31.764077 L44.9344453,32.2584284 L46.257622,32.2584284 C45.8106522,32.6721446 45.315178,33.0289419 44.7821522,33.3193338 L44.755553,33.3340905 L44.7738073,33.3583338 C44.8807254,33.5022122 44.9761694,33.6392392 45.0575315,33.7651986" id="Fill-32" fill="#727171"></path>
                <path d="M57.2065573,33.9994095 L58.7639108,32.9901527 L58.7759065,32.9822473 L58.7759065,32.3998824 L54.7114539,32.3998824 L54.7114539,32.9406122 L57.8517168,32.9406122 L56.6234625,33.7216662 L56.6114668,33.7295716 L56.6114668,34.1395986 L53.5061478,34.1395986 L53.5061478,34.6871797 L56.6114668,34.6871797 L56.6114668,35.7312203 C56.6114668,36.0332068 56.477428,36.1802473 56.2004841,36.1802473 C55.9334496,36.1802473 55.6226047,36.155477 55.2773375,36.1069905 L55.2423935,36.1017203 L55.2481306,36.1370311 C55.2830746,36.3631257 55.3096737,36.5628689 55.3268849,36.7309905 L55.3294927,36.7541797 L55.3524409,36.7547068 C55.7795918,36.7636662 56.1112987,36.7678824 56.3397384,36.7678824 C56.9150099,36.7678824 57.2065573,36.4732743 57.2065573,35.8919635 L57.2065573,34.6871797 L60.1001263,34.6871797 L60.1001263,34.1395986 L57.2065573,34.1395986 L57.2065573,33.9994095 Z" id="Fill-34" fill="#727171"></path>
                <path d="M54.3395353,31.7296622 L59.2864534,31.7296622 L59.2864534,32.5992568 L59.8747638,32.5992568 L59.8747638,31.1889324 L57.1433974,31.1889324 L57.4088672,31.0076351 L57.3937422,30.986027 C57.2132853,30.7225135 56.9806733,30.4337027 56.7032078,30.1264459 L56.6880828,30.1101081 L56.2019966,30.440027 L56.2202509,30.4621622 C56.4356517,30.7235676 56.6228888,30.9675811 56.7793543,31.1889324 L53.7580052,31.1889324 L53.7580052,32.5992568 L54.3395353,32.5992568 L54.3395353,31.7296622 Z" id="Fill-36" fill="#727171"></path>
                <path d="M64.479231,30.3945973 L63.8512828,30.2122459 L63.8434595,30.2370162 C63.4846319,31.3880432 62.915619,32.4905838 62.1525888,33.5140703 L62.1432009,33.5267189 L62.149981,33.5414757 C62.2412526,33.7348946 62.325744,33.9304216 62.4008474,34.1217324 L62.4175371,34.1644216 L62.4457009,34.1285838 C62.7028259,33.7997189 62.9495198,33.4455568 63.1805672,33.0734757 L63.1805672,36.7879622 L63.7886966,36.7879622 L63.7886966,31.9804216 C64.0322612,31.4950297 64.2612224,30.9701108 64.4688,30.4214757 L64.479231,30.3945973 Z" id="Fill-38" fill="#727171"></path>
                <path d="M68.1947655,34.5290189 L68.1613862,34.5163703 L68.1598216,34.5522081 C68.1420888,34.9464243 68.1024509,35.2979514 68.0409078,35.5999378 C67.9939681,35.8776811 67.831244,36.0126 67.5433474,36.0126 L66.702606,36.0126 C66.3990629,36.0126 66.2514638,35.8724108 66.2514638,35.584127 L66.2514638,33.7073838 C67.1255845,33.0638838 67.8922655,32.3028568 68.5311664,31.4448568 L68.5468129,31.4232486 L68.0210888,31.0374649 L68.0059638,31.059073 C67.4948431,31.7589649 66.9049681,32.3871811 66.2514638,32.9258027 L66.2514638,30.319127 L65.6302957,30.319127 L65.6302957,33.399073 C65.1332569,33.7484919 64.5924078,34.0615459 64.0228733,34.3292757 L63.9941879,34.3424514 L64.0129638,34.3682757 C64.1308345,34.5316541 64.2377526,34.6887081 64.3300672,34.8357486 L64.3425845,34.8552486 L64.3634466,34.8452351 C64.8041578,34.6296811 65.2302655,34.3904108 65.6302957,34.1337486 L65.6302957,35.6510595 C65.6302957,36.2634649 65.9421836,36.5738838 66.5565716,36.5738838 L67.6758216,36.5738838 C68.239619,36.5738838 68.5692397,36.3077351 68.6547741,35.7828162 C68.7121448,35.4718703 68.7590845,35.1240324 68.7940284,34.7503703 L68.7961147,34.7282351 L68.7752526,34.7224378 C68.5754983,34.6655189 68.3799164,34.6001676 68.1947655,34.5290189" id="Fill-40" fill="#727171"></path>
                <polygon id="Fill-42" fill="#727171" points="74.555506 34.2721459 76.5749543 34.2721459 76.5749543 33.7314162 74.555506 33.7314162 74.555506 32.2525784 73.9541569 32.2525784 73.9541569 35.9928892 72.6351526 35.9928892 72.6351526 33.3967541 72.0338034 33.3967541 72.0338034 35.9928892 71.1398638 35.9928892 71.1398638 36.5404703 77.2039457 36.5404703 77.2039457 35.9928892 74.555506 35.9928892"></polygon>
                <path d="M74.5687534,30.4586838 L74.720525,30.2520892 L73.9402836,30.2520892 L73.9324603,30.2626297 C73.188206,31.3071973 72.1331069,32.1483324 70.7979345,32.763373 L70.768206,32.7765486 L70.7875034,32.8029 C70.9267578,32.9968459 71.0561026,33.1813054 71.170844,33.3510081 L71.1844043,33.3705081 L71.2052664,33.3589135 C72.4961069,32.6316162 73.5011371,31.8099811 74.1921931,30.9161432 C74.9260164,31.8268459 75.9018397,32.5947243 77.0935853,33.1992243 L77.114969,33.2097649 L77.1274862,33.1892108 C77.2709129,32.9515216 77.3934776,32.7586297 77.4910078,32.6147514 L77.5092621,32.587873 L77.4790121,32.5757514 C76.2298957,32.0740216 75.2509431,31.3620081 74.5687534,30.4586838" id="Fill-44" fill="#727171"></path>
                <path d="M80.7889358,34.6419608 L80.7978022,34.6704203 L81.3673366,34.4105959 L81.3892418,34.4005824 L81.3814185,34.3779203 C81.0424099,33.4124068 80.6877547,32.4895824 80.3278841,31.6331635 L80.3179746,31.6083932 L79.7870349,31.8434473 L79.7964228,31.8671635 C80.1604659,32.7720689 80.4947806,33.7054338 80.7889358,34.6419608" id="Fill-46" fill="#727171"></path>
                <path d="M84.6710539,34.6790108 C85.0403125,33.9148216 85.4351272,32.9888351 85.8440237,31.9268757 L85.8534116,31.9026324 L85.2677091,31.6686324 L85.2583211,31.6949838 C84.9599935,32.5724838 84.5860409,33.4947811 84.1474159,34.4355243 L84.1359418,34.4592405 L84.6601013,34.7022 L84.6710539,34.6790108 Z" id="Fill-48" fill="#727171"></path>
                <polygon id="Fill-50" fill="#727171" points="83.9585099 30.3055824 83.3503806 30.3055824 83.3503806 35.8319878 82.2436478 35.8319878 82.2436478 30.3055824 81.6355185 30.3055824 81.6355185 35.8319878 79.5101953 35.8319878 79.5101953 36.3795689 86.1036522 36.3795689 86.1036522 35.8319878 83.9585099 35.8319878"></polygon>
                <polygon id="Fill-52" fill="#727171" points="91.7886181 31.3683851 94.3244026 31.3683851 94.3244026 30.78075 88.631144 30.78075 88.631144 31.3683851 91.1538897 31.3683851 91.1538897 35.7785473 88.2540621 35.7785473 88.2540621 36.3530068 94.6952259 36.3530068 94.6952259 35.7785473 91.7886181 35.7785473"></polygon>
                <path d="M98.8978375,30.3743068 L98.3037901,30.1988068 L98.2970099,30.2241041 C97.9371392,31.491077 97.4416651,32.6031041 96.8236263,33.5285635 L96.8152815,33.5412122 L96.8220616,33.5549149 C96.9221996,33.7667797 97.0066909,33.9596716 97.0724065,34.1288473 L97.0901392,34.1731176 L97.1177815,34.1341176 C97.3493504,33.811577 97.5715315,33.4537257 97.7791091,33.0689959 L97.7791091,36.814577 L98.3476004,36.814577 L98.3476004,31.8794959 C98.5390099,31.4199284 98.7210315,30.9224149 98.8894927,30.4001311 L98.8978375,30.3743068 Z" id="Fill-54" fill="#727171"></path>
                <path d="M100.551626,30.3194432 L100.559971,30.2909838 L99.9648802,30.1808351 L99.9586216,30.2040243 C99.6827207,31.1953622 99.2477466,32.1065919 98.6646517,32.9124162 L98.6505698,32.9319162 L98.6688241,32.947727 C98.8226819,33.0805378 98.9624578,33.2086054 99.0850224,33.3282405 L99.1069276,33.3498486 L99.1246603,33.3245514 C99.4521948,32.8518081 99.7437422,32.3400649 99.9904362,31.8030243 L100.487475,31.8030243 L100.487475,36.8145243 L101.055966,36.8145243 L101.055966,35.1285649 L103.287165,35.1285649 L103.287165,34.6078622 L101.055966,34.6078622 L101.055966,33.4426054 L103.201109,33.4426054 L103.201109,32.9213757 L101.055966,32.9213757 L101.055966,31.8030243 L103.466057,31.8030243 L103.466057,31.2823216 L100.214703,31.2823216 C100.339354,30.9708486 100.452531,30.6472541 100.551626,30.3194432" id="Fill-56" fill="#727171"></path>
                <path d="M109.446534,32.6555959 C108.855616,31.3854608 108.304336,30.5849068 107.807819,30.2760689 L107.793215,30.2665824 L107.309215,30.6149473 L107.343637,30.6355014 C107.68734,30.8410419 108.034172,31.2352581 108.375267,31.8081365 C107.881879,33.7602446 106.913357,35.2079878 105.49578,36.1102581 L105.468659,36.12765 L105.491086,36.1508392 C105.639728,36.3057851 105.774288,36.4733797 105.892159,36.6494068 L105.906762,36.6715419 L105.928668,36.6562581 C107.302435,35.6860014 108.260004,34.3130959 108.77634,32.5733797 C108.832668,32.6945959 108.888474,32.8168662 108.942194,32.9386095 C109.761551,34.7995419 110.667487,36.0375284 111.634444,36.6172581 L111.653741,36.6288527 L112.152866,35.9943122 L112.121051,35.9811365 C111.165047,35.5842851 110.26537,34.4654068 109.446534,32.6555959" id="Fill-58" fill="#727171"></path>
                <mask id="mask-4" fill="white">
                    <use xlink:href="#path-3"></use>
                </mask>
                <g id="Clip-61"></g>
                <path d="M115.444953,35.3505486 L119.511491,35.3505486 L119.511491,31.4220892 L115.444953,31.4220892 L115.444953,35.3505486 Z M114.823784,30.8676568 L114.823784,36.5537514 L115.444953,36.5537514 L115.444953,35.9049811 L119.511491,35.9049811 L119.511491,36.5537514 L120.133181,36.5537514 L120.133181,30.8676568 L114.823784,30.8676568 Z" id="Fill-60" fill="#727171" mask="url(#mask-4)"></path>
            </g>
        </g>
    </g>
</svg>