<?xml version="1.0" encoding="utf-8"?>
<!-- Generator: Adobe Illustrator 21.0.0, SVG Export Plug-In . SVG Version: 6.00 Build 0)  -->
<svg version="1.1" id="Layer_1" xmlns="http://www.w3.org/2000/svg" xmlns:xlink="http://www.w3.org/1999/xlink" x="0px" y="0px"
	 viewBox="0 0 256 256" style="enable-background:new 0 0 256 256;" xml:space="preserve">
<style type="text/css">
	.st0{clip-path:url(#SVGID_2_);fill:#E50012;}
	.st1{clip-path:url(#SVGID_2_);fill:#727171;}
</style>
<g>
	<defs>
		<rect id="SVGID_1_" x="13.2" y="93.6" width="232" height="73"/>
	</defs>
	<clipPath id="SVGID_2_">
		<use xlink:href="#SVGID_1_"  style="overflow:visible;"/>
	</clipPath>
	<path class="st0" d="M37.2,123.8c0,0,2.1,2.1,3.1,3.1c1.7,1.7,4.5,1.7,6.3,0c1.7-1.7,1.7-4.5,0-6.3c-1-1-3.1-3.1-3.1-3.1
		c-3.5-3.5-3.5-9.1,0-12.5c3.5-3.5,9.1-3.5,12.5,0c0,0,2,2,3.1,3.1c1.7,1.7,4.5,1.7,6.3,0c1.7-1.7,1.7-4.5,0-6.3
		c-1.2-1.2-3.1-3.1-3.1-3.1c-6.9-6.9-18.1-6.9-25,0c-3.7,3.7-5.5,8.7-5.1,13.6c-4.9-0.3-9.9,1.4-13.6,5.1c-6.9,6.9-6.9,18.1,0,25
		c0,0,2.5,2.5,3.1,3.1c1.7,1.7,4.5,1.7,6.3,0c1.7-1.7,1.7-4.5,0-6.3c-0.6-0.6-3.1-3.1-3.1-3.1c-3.5-3.5-3.5-9.1,0-12.5
		C28.1,120.3,33.8,120.3,37.2,123.8"/>
	<path class="st0" d="M81,117.5c-6.9-6.9-18.1-6.9-25,0c-6.9,6.9-6.9,18.1,0,25c3.5,3.5,3.5,9.1,0,12.5c-3.5,3.5-9.1,3.5-12.5,0
		c-3.5-3.5-3.5-9.1,0-12.5c0,0,2.1-2.1,3.1-3.1c1.7-1.7,1.7-4.5,0-6.3c-1.7-1.7-4.5-1.7-6.3,0c-1,1-3.1,3.1-3.1,3.1
		c-6.9,6.9-6.9,18.1,0,25c6.9,6.9,18.1,6.9,25,0c6.9-6.9,6.9-18.1,0-25c-3.5-3.5-3.5-9.1,0-12.5c3.5-3.5,9.1-3.5,12.5,0
		c3.5,3.5,3.5,9.1,0,12.5c0,0-2.3,2.3-3.1,3.1c-1.7,1.7-1.7,4.5,0,6.3c1.7,1.7,4.5,1.7,6.3,0c0.8-0.8,3.1-3.1,3.1-3.1
		C88,135.7,88,124.4,81,117.5"/>
	<path class="st1" d="M143.3,103.1h-28.8c0.2-2,0.2-3.1,0.2-3.1c0.1-0.5-0.1-0.9-0.2-1.1c-0.4-0.4-0.9-0.4-1-0.4h-4.9
		c-0.9,0-1.3,0.7-1.4,1.1c0,0-0.1,1.3-0.3,3.6h-7.5c-0.7,0-1.2,0.5-1.2,1.2v3.4c0,0.7,0.6,1.2,1.2,1.2h6.9c-1.1,9.2-3.4,23-8.3,30.8
		c-0.1,0.2-0.4,0.9-0.1,1.4c0.1,0.2,0.4,0.5,0.9,0.5h4.8h0c0.3,0,1.3-0.1,1.9-1.1l0.1-0.1c0,0,0,0,0-0.1c3.1-5.5,5.2-13.8,6.6-21.5
		h19.1c0.3,0,0.7,0,0.7,0.7c0,1.2-2.3,4.5-5.2,7.7c-1.5-1.6-2.9-3.2-4.2-5.1c-0.3-0.5-0.9-0.5-0.9-0.5h-6.6c-0.6,0-0.7,0.4-0.6,0.7
		c2.1,3.8,4.7,7.1,7.3,9.7c-1.8,1.5-3.6,2.8-5.2,3.4c-0.8,0.3-1.8,0.5-2.4,0.5H113c-0.9,0-1.1,0.6-1.1,1.3v3.4c0,0.8,0.4,1,1.1,1
		h3.3c1.2,0,2.6-0.3,3.8-0.9c1.9-0.9,4.3-2.4,6.8-4.4c4.1,3.2,7.1,4.5,6.3,4c-0.4-0.3,2.5,1.5,6.4,1.5h3.1c0.6,0,1.2-0.3,1.2-1.1
		v-3.8c0-0.7-0.5-0.9-0.9-0.9h-0.5c-3.1,0-4-0.5-5.2-1c-1.7-1-3.4-2.1-5.1-3.3c4.9-4.9,9-10.9,9-15.7c0-2.2-1.8-3-3.5-3h-24
		c0.2-1.4,0.4-2.8,0.5-4.1h29.4c0.7,0,1.2-0.5,1.2-1.2v-3.4C144.5,103.6,143.9,103.1,143.3,103.1"/>
	<path class="st1" d="M193.4,135.9h-17.1v-8.3h10.4c0.7,0,1.2-0.6,1.2-1.2V123c0-0.7-0.6-1.2-1.2-1.2l-27,0c3.6-2,6.2-3.6,9.7-5.9
		c0.6-0.4,0.7-1.3,0.3-1.8l-2.5-3c-0.4-0.5-1.2-0.6-1.7-0.2c-3.9,3-8.2,5.4-13.2,7.4c-0.6,0.2-0.9,0.9-0.8,1.5l1.2,3.9
		c0.2,0.8,1,1.2,1.8,0.8c1.2-0.6,2.7-1.3,3.6-1.8v3.7c0,0.7,0.6,1.2,1.2,1.2h10.4v8.3h-17.1c-0.7,0-1.2,0.6-1.2,1.2v3.3
		c0,0.7,0.6,1.2,1.2,1.2h40.8c0.7,0,1.2-0.6,1.2-1.2v-3.3C194.7,136.4,194.1,135.9,193.4,135.9"/>
	<path class="st1" d="M190.9,123.4c0.6,0.4,1.4,0.2,1.7-0.5l1.9-3.4c0.3-0.6,0.1-1.4-0.5-1.7c-4.6-2.6-8.7-5.1-14.2-7.7
		c-0.5-0.3-1.2-0.1-1.6,0.4l-2,2.9c-0.4,0.6-0.2,1.5,0.5,1.8C182,117.8,186.1,120.5,190.9,123.4"/>
	<path class="st1" d="M158.2,112.2c0,0.7-0.5,1.2-1.2,1.2h-4.4c-0.7,0-1.2-0.5-1.2-1.2v-7.9c0-0.7,0.5-1.2,1.2-1.2h4.4
		c0.7,0,1.2,0.5,1.2,1.2V112.2z"/>
	<path class="st1" d="M191.4,103.1H186h0h-8.6l-1.6-3.9c-0.2-0.5-0.6-0.8-1.2-0.8h-4.8c-0.9,0-1.5,0.9-1.2,1.7l1.2,2.9h-17.3
		c-0.7,0-1.2,0.5-1.2,1.2v3.4c0,0.7,0.5,1.2,1.2,1.2h30.2h4.1c0.6,0,1.1,0.5,1.1,1.1v1.3v1c0,0.7,0.5,1.2,1.2,1.2h4.4
		c0.7,0,1.2-0.5,1.2-1.2V108v-1v-0.7C194.7,104.5,193.2,103.1,191.4,103.1"/>
	<path class="st1" d="M227.7,117.5h-8.3v-2.9c0-0.7,0.6-1.2,1.2-1.2h5.8c0.7,0,1.2,0.6,1.2,1.2V117.5z M227.7,125.4
		c0,0.7-0.6,1.2-1.2,1.2h-5.8c-0.7,0-1.2-0.6-1.2-1.2v-2.9h8.3V125.4z M213.6,129.2c0,1.4,1.1,2.5,2.5,2.5h15c1.4,0,2.5-1.1,2.5-2.5
		v-18.3c0-1.4-1.1-2.5-2.5-2.5h-15c-1.4,0-2.5,1.1-2.5,2.5"/>
	<path class="st1" d="M218.9,104.1l-2.2-5c-0.2-0.5-0.6-0.7-1.1-0.7h-4.8c-0.9,0-1.5,0.9-1.1,1.8l2.2,5c0.2,0.5,0.6,0.8,1.1,0.8h4.7
		C218.7,105.9,219.3,105,218.9,104.1"/>
	<path class="st1" d="M208.4,140.6c0,0.6-0.5,1.1-1.1,1.1H203c-0.6,0-1.1-0.5-1.1-1.1v-36.5c0-0.6,0.5-1.1,1.1-1.1h4.3
		c0.6,0,1.1,0.5,1.1,1.1V140.6z"/>
	<path class="st1" d="M245.2,103.4c-0.2-2.8-2.5-5-5.4-5h-17c-0.7,0-1.2,0.5-1.2,1.2v3.4c0,0.7,0.5,1.2,1.2,1.2h10.5h3.2
		c1.2,0,2.2,1,2.2,2.2v28.5c0,0.5-0.3,0.9-0.7,1h-4.7c-0.6,0-1.1,0.5-1.1,1.1v3.7c0,0.6,0.5,1.1,1.1,1.1h3.2h4.3h1.1
		c1.8,0,3.2-1.5,3.2-3.2v-33.5v-1.1v0v-0.2C245.2,103.5,245.2,103.4,245.2,103.4"/>
	<path class="st1" d="M102.4,161.5h3.6v-6.4h-3.1v-1h3.1v-3.9h1.1v3.9h3.3v1h-3.3v6.4h3.7v1h-8.5V161.5z M101.3,157l0.7-0.6
		c0.2,0.2,0.5,0.5,0.8,0.9c0.3,0.4,0.6,0.7,0.8,0.9l-0.8,0.7C102.3,158.3,101.8,157.7,101.3,157 M99.6,150.7l1-0.4
		c0.3,0.5,0.6,1.2,0.9,1.8l-1,0.5C100.2,151.8,99.9,151.2,99.6,150.7 M98.1,153.8v-0.9h4.3v1c-0.4,0.8-0.9,1.5-1.4,2.2v6.9h-1v-5.6
		c-0.5,0.6-1.1,1.1-1.7,1.6c-0.1-0.4-0.2-0.8-0.4-1.1c1.4-1.2,2.5-2.5,3.4-4H98.1z"/>
	<path class="st1" d="M123.2,153.6c1.5,0.9,2.9,1.9,4.2,2.8l-0.7,0.9c-1.3-1-2.7-2-4.2-3L123.2,153.6z M119.1,153.5l0.8,0.8
		c-1.4,1.2-2.9,2.3-4.2,3.1c0,0-0.1-0.1-0.2-0.3c-0.2-0.3-0.4-0.5-0.5-0.6C116.5,155.7,117.9,154.7,119.1,153.5 M115,152.1h6.1
		c-0.1-0.1-0.2-0.4-0.4-0.8c-0.2-0.3-0.4-0.6-0.4-0.8l0.9-0.4c0.5,0.6,0.8,1.2,1,1.6l-0.8,0.4h6.1v1H115V152.1z M127.6,161.9
		c0,0.1-0.1,0.2-0.2,0.4c-0.1,0.3-0.3,0.5-0.3,0.7c-2.8-0.8-4.7-1.6-5.8-2.4c-1.1,0.8-3,1.7-5.9,2.5c0-0.1-0.1-0.3-0.3-0.5
		c-0.1-0.2-0.2-0.4-0.3-0.5c2.7-0.7,4.5-1.4,5.6-2.2c-0.7-0.7-1.4-1.9-2.3-3.4l0.9-0.5c0.7,1.4,1.4,2.5,2.2,3.3
		c0.7-0.7,1.4-1.8,2.1-3.3l1,0.4c-0.7,1.6-1.4,2.8-2.3,3.6C123.3,160.7,125.1,161.4,127.6,161.9"/>
	<path class="st1" d="M135.2,158.3c1.1-0.5,2.2-1.1,3.2-1.8v-6h1.1v5.2c1.4-1.2,2.6-2.4,3.6-3.8l1,0.7c-1.2,1.6-2.8,3.1-4.6,4.5v3.5
		c0,0.7,0.3,1,1.1,1h1.4c0.7,0,1.1-0.2,1.2-0.7c0.1-0.8,0.2-1.6,0.2-2.4c0.4,0.1,0.8,0.3,1.2,0.4c-0.1,0.9-0.2,1.7-0.3,2.4
		c-0.1,1-0.9,1.4-2.2,1.4h-1.7c-1.4,0-2-0.6-2-1.9v-2.9c-0.6,0.5-1.5,1-2.6,1.5C135.5,158.8,135.3,158.4,135.2,158.3 M131.4,156.7
		c1.5-1.9,2.7-4.1,3.5-6.5l1.1,0.3c-0.4,1-0.8,2-1.3,3v9.4h-1.1v-7.4c-0.5,0.9-1.1,1.7-1.6,2.3c-0.1-0.2-0.3-0.5-0.4-0.8
		C131.5,156.9,131.4,156.8,131.4,156.7"/>
	<path class="st1" d="M159.2,155.5l0.9-0.3c0.1,0.3,0.2,0.6,0.4,1.1c0.1,0.3,0.4,1.1,0.8,2.3l-1,0.3
		C160,157.7,159.6,156.6,159.2,155.5 M155.1,150.2h1c0,0.4,0,0.9-0.1,1.5v1.2h3.1c-0.1,4.1-0.2,6.6-0.2,7.6c-0.1,1.6-0.7,2.3-2,2.2
		h-1.4c0-0.5-0.1-0.9-0.2-1.1c0.4,0,0.9,0.1,1.5,0.1c0.7,0.1,1-0.3,1-1.2c0.1-1.2,0.1-3.4,0.2-6.6H156c0,0.4,0,0.7-0.1,1.1
		c0,3.4-1.1,6.1-3.3,7.9c-0.2-0.3-0.5-0.5-0.8-0.8c2.1-1.6,3.1-4,3-7.1c0-0.3,0-0.7,0.1-1.1h-2.3v-1h2.3
		C155.1,152,155.1,151.1,155.1,150.2 M153.1,155.2l0.9,0.3c-0.4,1.1-0.9,2.4-1.5,3.7c-0.3-0.1-0.5-0.3-0.9-0.4
		C152.1,157.8,152.6,156.6,153.1,155.2 M149.7,150.3h1v3.7h1.2v1h-1.2v8h-1v-8h-1.4v-1h1.4V150.3z"/>
	<path class="st1" d="M169.7,159.2h3.6v-2.4h-3.6V159.2z M168.8,155.9h5.6v4.3h-5.6V155.9z M167.7,153.4h7.7v1h-7.7V153.4z
		 M167,162.8h-1v-11.9h11.2v10.3c0.1,1.1-0.5,1.6-1.7,1.6h-2c0-0.1-0.1-0.4-0.2-0.8c0-0.1-0.1-0.2-0.1-0.3c0.3,0,0.9,0.1,2,0.1
		c0.7,0,1-0.2,0.9-0.7v-9.2H167V162.8z"/>
	<path class="st1" d="M192.6,155.3l1-0.3c0.5,1.2,0.9,2.4,1.4,3.5l-1.1,0.4C193.4,157.6,193,156.4,192.6,155.3 M186.6,150.2h1.1v0.4
		c0,0.8-0.1,1.4-0.1,2.1h4.7c-0.1,3.3-0.1,5.6-0.2,7.1c0,2.1-0.9,3-2.6,2.9h-2.2c-0.1-0.7-0.1-1-0.2-1.1h1.1h1.2
		c1,0.1,1.6-0.6,1.6-2.1c0.1-2,0.2-3.9,0.2-5.8h-3.7c0.1,4.7-1.5,7.8-4.8,9.3c-0.2-0.3-0.4-0.6-0.7-0.9c1.8-1.1,3-2.2,3.4-3.2
		c0.5-1,0.9-2.7,1-5.2h-3.9v-1h4C186.6,151.8,186.6,151,186.6,150.2 M183.7,154.9l1,0.4c-0.4,1.1-1,2.4-1.8,4
		c-0.3-0.1-0.6-0.3-1-0.5C182.5,157.7,183.1,156.4,183.7,154.9"/>
	<path class="st1" d="M206.2,150.9l1-0.4c0.9,2.4,2.5,4.3,4.6,5.5c-0.3,0.3-0.5,0.6-0.8,1C208.7,155.4,207.1,153.4,206.2,150.9
		 M207,157.8c0.4,0.5,0.9,1.1,1.6,2c1,1.2,1.7,2,2.3,2.6L210,163c-0.1-0.1-0.3-0.3-0.4-0.5c-0.3-0.3-0.5-0.6-0.6-0.7
		c-1.3,0-3.3,0.1-5.8,0.3c-0.7,0-1.1,0.1-1.5,0.1c-0.4,0-0.9,0.1-1.5,0.2l-0.5-1c0.4-0.2,0.8-0.4,1.1-0.7c1.3-1.4,2.5-3.1,3.6-5.2
		l1.1,0.5c-0.8,1.4-2,3.1-3.7,5.2c1.8-0.1,3.9-0.2,6.4-0.3c-0.6-0.8-1.3-1.6-2.1-2.5L207,157.8z M198.6,156.5c2-1.5,3.5-3.4,4.5-5.7
		l1,0.4c-1.2,2.5-2.8,4.5-4.7,6.1C199.2,157,198.9,156.8,198.6,156.5"/>
	<path class="st1" d="M223.6,155.9c0.8-0.9,1.7-2,2.7-3.3l0.9,0.6c-1,1.4-1.9,2.5-2.7,3.4L223.6,155.9z M216.9,153.2l0.8-0.5
		c0.7,0.9,1.6,2,2.6,3.3l-0.9,0.7C218.8,155.8,218,154.6,216.9,153.2 M216.2,150.8h11.6v1h-5.3v5.5h5.9v1h-5.9v4.7h-1.1v-4.7h-5.9
		v-1h5.9v-5.5h-5.2V150.8z"/>
	<path class="st1" d="M234.9,161.3h7.3v-3.2h-7.3V161.3z M243.3,157.1v5.9h-1.1v-0.9h-7.3v0.9h-1.1v-5.9H243.3z M241.3,151.9
		c1.7,1.6,3,2.9,3.9,3.9l-0.9,0.8c-0.1-0.1-0.3-0.3-0.5-0.6c-0.3-0.3-0.4-0.5-0.5-0.6c-3.3,0.1-6.3,0.2-9,0.4c-0.5,0-1,0.1-1.4,0.2
		l-0.5-1c0.4-0.1,0.8-0.4,1.1-0.7c1.5-1.2,2.9-2.6,4.1-4.2l1,0.6c-1.2,1.4-2.6,2.8-4.1,4.1c2.9-0.1,5.5-0.3,7.9-0.3
		c-0.1-0.1-0.3-0.3-0.6-0.6c-0.2-0.2-0.6-0.6-1.2-1.2L241.3,151.9z"/>
</g>
</svg>
